# xmcd
# 
# Track frame offsets:
#     150
#     16776
#     39839
#     59507
#     77406
#     92919
#     118706
#     137824
#     149574
#     168781
#     191381
#     206241
#     225635
#     238468
#     261139
# 
# Disc length: 3657
# 
# Revision: 1
# Processed by: cddbd v1.5.2PL0 Copyright (c) Steve Scherf et al.
# Submitted via: BonkEnc v1.0
# 
DISCID=ce0e470f
DTITLE=Aaron Watson - A TExas Cafe
DYEAR=2001
DGENRE=Country
TTITLE0=What's Her Name
TTITLE1=Old Man Walker's Property
TTITLE2=Just A Call
TTITLE3=Not Just Another Pretty Face
TTITLE4=Amarillo Fair
TTITLE5=Strong Arm Of The Law
TTITLE6=On The Losing End
TTITLE7=When All Those Aggies Move To Austin
TTITLE8=Language Of Love
TTITLE9=A Texas Cafe
TTITLE10=Charlene Gene
TTITLE11=Every Time I Hear Those Songs
TTITLE12=Going To Texas
TTITLE13=Show Her That You Love Her
TTITLE14=Thank God For Country Girls
EXTD=
EXTT0=
EXTT1=
EXTT2=
EXTT3=
EXTT4=
EXTT5=
EXTT6=
EXTT7=
EXTT8=
EXTT9=
EXTT10=
EXTT11=
EXTT12=
EXTT13=
EXTT14=
PLAYORDER=
